<?xml version="1.0" encoding="UTF-8"?>
<svg xmlns="http://www.w3.org/2000/svg" xmlns:xlink="http://www.w3.org/1999/xlink" width="15pt" height="15pt" viewBox="0 0 15 15" version="1.1">
<g id="surface1">
<path style="fill:#b76132" d="M 13.796875 9.847656 C 12.878906 9.847656 11.976562 9.703125 11.121094 9.417969 C 10.703125 9.277344 10.1875 9.40625 9.933594 9.671875 L 8.246094 10.945312 C 6.289062 9.898438 5.085938 8.695312 4.054688 6.753906 L 5.292969 5.109375 C 5.613281 4.789062 5.726562 4.320312 5.589844 3.882812 C 5.304688 3.023438 5.160156 2.121094 5.160156 1.203125 C 5.160156 0.539062 4.621094 0 3.957031 0 L 1.203125 0 C 0.539062 0 0 0.539062 0 1.203125 C 0 8.8125 6.1875 15 13.796875 15 C 14.460938 15 15 14.460938 15 13.796875 L 15 11.050781 C 15 10.386719 14.460938 9.847656 13.796875 9.847656 Z M 13.796875 9.847656 "/>
</g>
</svg>
