<?xml version="1.0" encoding="UTF-8"?>
<svg xmlns="http://www.w3.org/2000/svg" xmlns:xlink="http://www.w3.org/1999/xlink" width="37pt" height="37pt" viewBox="0 0 37 37" version="1.1">
<g id="surface1">
<path style=" stroke:none;fill-rule:nonzero;fill:rgb(0%,0%,0%);fill-opacity:1;" d="M 36.949219 10.875 C 36.863281 8.910156 36.542969 7.558594 36.089844 6.386719 C 35.621094 5.144531 34.898438 4.03125 33.949219 3.105469 C 33.027344 2.167969 31.90625 1.4375 30.679688 0.976562 C 29.5 0.519531 28.15625 0.203125 26.191406 0.117188 C 24.210938 0.0234375 23.582031 0 18.5625 0 C 13.539062 0 12.910156 0.0234375 10.9375 0.109375 C 8.972656 0.195312 7.621094 0.511719 6.453125 0.96875 C 5.210938 1.4375 4.097656 2.160156 3.171875 3.105469 C 2.234375 4.03125 1.503906 5.152344 1.039062 6.378906 C 0.585938 7.558594 0.265625 8.902344 0.179688 10.867188 C 0.0859375 12.847656 0.0664062 13.476562 0.0664062 18.496094 C 0.0664062 23.519531 0.0859375 24.144531 0.171875 26.117188 C 0.261719 28.085938 0.578125 29.433594 1.035156 30.605469 C 1.503906 31.847656 2.234375 32.960938 3.171875 33.886719 C 4.097656 34.824219 5.214844 35.554688 6.445312 36.015625 C 7.621094 36.472656 8.964844 36.789062 10.933594 36.878906 C 12.902344 36.964844 13.53125 36.984375 18.554688 36.984375 C 23.574219 36.984375 24.203125 36.964844 26.175781 36.878906 C 28.140625 36.789062 29.492188 36.472656 30.664062 36.015625 C 33.148438 35.054688 35.113281 33.089844 36.074219 30.605469 C 36.53125 29.429688 36.847656 28.085938 36.933594 26.117188 C 37.023438 24.144531 37.042969 23.519531 37.042969 18.496094 C 37.042969 13.476562 37.035156 12.847656 36.949219 10.875 Z M 33.617188 25.972656 C 33.539062 27.78125 33.234375 28.757812 32.984375 29.40625 C 32.363281 31.019531 31.082031 32.296875 29.472656 32.917969 C 28.820312 33.171875 27.839844 33.472656 26.039062 33.554688 C 24.089844 33.640625 23.503906 33.660156 18.570312 33.660156 C 13.632812 33.660156 13.042969 33.640625 11.097656 33.554688 C 9.292969 33.472656 8.316406 33.171875 7.664062 32.917969 C 6.863281 32.621094 6.132812 32.152344 5.542969 31.539062 C 4.925781 30.9375 4.457031 30.214844 4.160156 29.414062 C 3.910156 28.761719 3.605469 27.78125 3.527344 25.980469 C 3.4375 24.03125 3.417969 23.445312 3.417969 18.511719 C 3.417969 13.574219 3.4375 12.984375 3.527344 11.039062 C 3.605469 9.234375 3.910156 8.257812 4.160156 7.609375 C 4.457031 6.804688 4.925781 6.078125 5.550781 5.484375 C 6.148438 4.871094 6.871094 4.398438 7.671875 4.105469 C 8.324219 3.851562 9.304688 3.546875 11.105469 3.46875 C 13.054688 3.382812 13.640625 3.359375 18.574219 3.359375 C 23.519531 3.359375 24.101562 3.382812 26.046875 3.46875 C 27.851562 3.546875 28.828125 3.851562 29.480469 4.105469 C 30.28125 4.398438 31.011719 4.871094 31.601562 5.484375 C 32.21875 6.082031 32.6875 6.804688 32.984375 7.609375 C 33.234375 8.257812 33.539062 9.242188 33.617188 11.039062 C 33.707031 12.992188 33.726562 13.574219 33.726562 18.511719 C 33.726562 23.445312 33.707031 24.023438 33.617188 25.972656 Z M 33.617188 25.972656 "/>
<path style=" stroke:none;fill-rule:nonzero;fill:rgb(0%,0%,0%);fill-opacity:1;" d="M 18.5625 8.996094 C 13.316406 8.996094 9.058594 13.25 9.058594 18.496094 C 9.058594 23.742188 13.316406 27.996094 18.5625 27.996094 C 23.808594 27.996094 28.0625 23.742188 28.0625 18.496094 C 28.0625 13.25 23.808594 8.996094 18.5625 8.996094 Z M 18.5625 24.660156 C 15.160156 24.660156 12.398438 21.898438 12.398438 18.496094 C 12.398438 15.09375 15.160156 12.332031 18.5625 12.332031 C 21.964844 12.332031 24.722656 15.09375 24.722656 18.496094 C 24.722656 21.898438 21.964844 24.660156 18.5625 24.660156 Z M 18.5625 24.660156 "/>
<path style=" stroke:none;fill-rule:nonzero;fill:rgb(0%,0%,0%);fill-opacity:1;" d="M 30.65625 8.621094 C 30.65625 9.84375 29.664062 10.835938 28.4375 10.835938 C 27.214844 10.835938 26.21875 9.84375 26.21875 8.621094 C 26.21875 7.394531 27.214844 6.402344 28.4375 6.402344 C 29.664062 6.402344 30.65625 7.394531 30.65625 8.621094 Z M 30.65625 8.621094 "/>
</g>
</svg>
