<?xml version="1.0" encoding="UTF-8"?>
<svg xmlns="http://www.w3.org/2000/svg" xmlns:xlink="http://www.w3.org/1999/xlink" width="37pt" height="37pt" viewBox="0 0 37 37" version="1.1">
<g id="surface1">
<path style=" stroke:none;fill-rule:nonzero;fill:rgb(0%,0%,0%);fill-opacity:1;" d="M 18.722656 30.0625 C 24.078125 30.0625 22.167969 26.675781 22.582031 25.699219 C 22.574219 24.972656 22.570312 24.273438 22.59375 23.847656 C 22.933594 23.941406 23.730469 24.347656 25.386719 25.953125 C 27.9375 28.527344 28.589844 30.0625 30.648438 30.0625 L 34.445312 30.0625 C 35.644531 30.0625 36.273438 29.566406 36.585938 29.148438 C 36.886719 28.742188 37.183594 28.035156 36.859375 26.929688 C 36.011719 24.273438 31.078125 19.683594 30.769531 19.199219 C 30.816406 19.109375 30.890625 18.992188 30.929688 18.929688 L 30.925781 18.929688 C 31.898438 17.640625 35.617188 12.070312 36.164062 9.839844 C 36.167969 9.835938 36.167969 9.832031 36.167969 9.828125 C 36.464844 8.8125 36.195312 8.152344 35.914062 7.777344 C 35.492188 7.21875 34.820312 6.9375 33.910156 6.9375 L 30.117188 6.9375 C 28.847656 6.9375 27.882812 7.578125 27.394531 8.746094 C 26.578125 10.816406 24.289062 15.082031 22.570312 16.589844 C 22.519531 14.453125 22.554688 12.820312 22.582031 11.605469 C 22.636719 9.242188 22.816406 6.9375 20.359375 6.9375 L 14.398438 6.9375 C 12.859375 6.9375 11.386719 8.617188 12.980469 10.613281 C 14.375 12.359375 13.480469 13.335938 13.78125 18.183594 C 12.609375 16.929688 10.527344 13.535156 9.050781 9.199219 C 8.640625 8.027344 8.011719 6.9375 6.25 6.9375 L 2.457031 6.9375 C 0.917969 6.9375 0 7.777344 0 9.183594 C 0 12.335938 6.980469 30.0625 18.722656 30.0625 Z M 6.25 9.25 C 6.585938 9.25 6.621094 9.25 6.867188 9.957031 C 8.378906 14.402344 11.761719 20.976562 14.234375 20.976562 C 16.09375 20.976562 16.09375 19.074219 16.09375 18.355469 L 16.09375 12.648438 C 15.988281 10.761719 15.300781 9.820312 14.851562 9.25 L 20.257812 9.257812 C 20.261719 9.28125 20.226562 15.570312 20.273438 17.09375 C 20.273438 19.253906 21.992188 20.496094 24.671875 17.78125 C 27.5 14.589844 29.457031 9.816406 29.535156 9.621094 C 29.652344 9.34375 29.753906 9.25 30.117188 9.25 L 33.925781 9.25 C 33.925781 9.253906 33.925781 9.257812 33.921875 9.265625 C 33.574219 10.882812 30.152344 16.042969 29.007812 17.644531 C 28.988281 17.667969 28.972656 17.695312 28.953125 17.71875 C 28.449219 18.542969 28.039062 19.453125 29.023438 20.730469 C 29.113281 20.839844 29.347656 21.09375 29.6875 21.445312 C 30.742188 22.53125 34.359375 26.253906 34.679688 27.734375 C 34.464844 27.769531 34.234375 27.742188 30.648438 27.75 C 29.886719 27.75 29.289062 26.609375 27.011719 24.3125 C 24.964844 22.320312 23.636719 21.507812 22.425781 21.507812 C 20.078125 21.507812 20.25 23.414062 20.269531 25.722656 C 20.277344 28.222656 20.261719 27.429688 20.277344 27.589844 C 20.140625 27.640625 19.75 27.75 18.722656 27.75 C 8.941406 27.75 2.570312 12.222656 2.328125 9.257812 C 2.410156 9.25 3.578125 9.253906 6.25 9.25 Z M 6.25 9.25 "/>
</g>
</svg>
